<?xml version="1.0" encoding="utf-8"?>
<!-- Generator: Adobe Illustrator 24.3.0, SVG Export Plug-In . SVG Version: 6.00 Build 0)  -->
<svg version="1.1" id="Calque_1" xmlns="http://www.w3.org/2000/svg" xmlns:xlink="http://www.w3.org/1999/xlink" x="0px" y="0px"
	 viewBox="0 0 389.5 238.4" style="enable-background:new 0 0 389.5 238.4;" xml:space="preserve">
<style type="text/css">
	.st0{fill:#FFFFFF;}
</style>
<path class="st0" d="M156.7,148.3h4.4v0.9h-5.4v-9.5h1V148.3z"/>
<path class="st0" d="M163.5,148.3h5.1v0.9h-6.1v-9.5h5.9v0.9h-4.9v3.2h4.6v0.9h-4.6V148.3z"/>
<path class="st0" d="M170.3,149.2h-1.1l4.1-9.5h1l4.1,9.5h-1.1l-1-2.5h-4.9L170.3,149.2z M171.7,145.8h4.1l-2.1-5L171.7,145.8z"/>
<path class="st0" d="M184.2,141.2c-0.4-0.6-1.1-1-1.8-0.9c-1,0-2,0.5-2,1.7c0,2.6,4.9,1.2,4.9,4.6c0,1.7-1.6,2.8-3.1,2.8
	c-1.2,0-2.3-0.4-3-1.4l0.9-0.6c0.5,0.8,1.3,1.2,2.2,1.2c1,0,2-0.6,2-1.7c0-2.7-4.9-1.2-4.9-4.7c0-1.8,1.5-2.7,3.1-2.7
	c1.1,0,1.9,0.3,2.7,1.2L184.2,141.2z"/>
<path class="st0" d="M190.3,149.2h-1v-4.1l-3.6-5.4h1.2l2.8,4.5l2.8-4.5h1.2l-3.6,5.4V149.2z"/>
<path class="st0" d="M205,141.9c-0.7-0.7-1.3-0.9-2-0.9c-2,0-3.3,1.5-3.3,3.4c0,2,1.3,3.5,3.3,3.5c0.8,0,1.5-0.3,2.1-1.2l1.4,1
	c-0.9,1.2-2.2,1.7-3.5,1.7c-2.9,0-5-2-5-5c0-3.1,2.1-5.1,5-5.1c1.3,0,2.5,0.5,3.3,1.5L205,141.9z"/>
<path class="st0" d="M210.8,139.6h1.5l4.1,9.5h-1.9l-0.9-2.2h-4.1l-0.9,2.2h-1.9L210.8,139.6z M212.9,145.5l-1.5-3.9l-1.5,3.9H212.9
	z"/>
<path class="st0" d="M217.4,139.6h3.3c1.8,0,3.5,0.6,3.5,2.7c0,1.4-0.8,2.4-2.2,2.6l2.5,4.2h-2l-2.2-4h-1.2v4h-1.7L217.4,139.6z
	 M220.4,143.7c1,0,2.1-0.1,2.1-1.3c0-1.1-1-1.3-1.9-1.3h-1.5v2.6L220.4,143.7z"/>
<path class="st0" d="M230.6,141.7c-0.4-0.5-1-0.8-1.7-0.8c-0.8,0-1.6,0.3-1.6,1.2c0,1.9,4.5,0.8,4.5,4.2c0,2-1.6,3-3.5,3
	c-1.2,0-2.3-0.4-3.1-1.3l1.3-1.2c0.4,0.6,1.1,1,1.9,1c0.8,0,1.7-0.4,1.7-1.3c0-2.1-4.5-0.9-4.5-4.3c0-2,1.8-2.9,3.5-2.9
	c1,0,2,0.3,2.7,1L230.6,141.7z"/>
<path class="st0" d="M241.5,109.9c-0.2,0-0.3-0.2-0.4-0.3l-0.2-0.3l0-0.1c-0.1-0.2-0.8-1.6-1.1-2c-0.2-0.4-0.5-0.8-0.8-1.1
	c-0.1-0.1-0.1-0.1-0.2-0.2l-0.1-0.1c0,0,0,0-0.1-0.1c0,0,0,0-0.1,0l0,0c0,0-0.1,0-0.1,0c-0.2,0-0.1,0-0.2,0
	c-0.2,0.2-0.4,0.4-0.6,0.7c-0.2,0.4-0.3,0.8-0.4,1.2c-0.1,0.2-0.1,0.4-0.1,0.7l-0.1,0.7l-0.1,1.5c-0.1,1-0.2,2-0.2,3
	c0,0.5,0,1,0,1.5c0,0.2,0,0.5,0,0.7c0,0.1,0,0.2,0,0.3l0,0.1l0,0.1c0,0,0,0,0,0l0,0c0,0.1,0.1,0.2,0.1,0.3c0,0.1,0.1,0.2,0.1,0.3
	c0,0.1,0,0.2,0,0.4c-0.1,0.4-0.4,0.8-0.8,1c-0.1,0-0.1,0.1-0.2,0.1l-0.1,0.1l-0.1,0.1l-0.1,0c-0.3,0.1-0.5,0.1-0.8,0.1
	c-0.2,0-0.4,0-0.6,0c-0.7,0-1.4,0-2,0c-1.3,0-2.5-0.1-3.6-0.1c-0.5,0-1.1,0.1-1.6,0.2c-0.5,0.1-1.1,0.3-1.6,0.5
	c-1.1,0.4-2.1,0.9-3.1,1.4l0,0c-0.3,0.2-0.7,0.1-1-0.2c-0.2-0.2-0.2-0.5,0-0.7c0,0,0,0,0,0c0.9-0.8,1.9-1.6,3-2.2
	c0.6-0.3,1.2-0.6,1.8-0.8c0.7-0.2,1.4-0.4,2.1-0.4c0.7-0.1,1.4-0.1,2-0.1s1.3,0,1.9-0.1c0.5,0,0.9,0,1.4,0c0,0,0-0.1,0-0.1
	c0-0.3-0.1-0.6-0.1-0.9c0-0.6,0-1.1,0-1.6c0-1.1,0.1-2.1,0.1-3.1l0.1-1.5l0.1-0.8c0-0.3,0.1-0.6,0.1-0.9c0.1-0.6,0.3-1.2,0.6-1.7
	l0.2-0.5c0.1-0.1,0.2-0.3,0.3-0.5c0.1-0.2,0.3-0.3,0.4-0.4c0.2-0.2,0.3-0.3,0.5-0.4c0.5-0.3,1-0.5,1.5-0.6c2.7-0.7,4.5,2.4,4.6,2.5
	c0-0.1-0.2-2.7-3.3-4.1c-0.4-0.2-0.9-0.5-1.4-0.8c-1.8-0.9-3.7-1.8-5.6-2.6c-0.6,0.2-1.2,0.3-1.9,0.5c-0.9,0.2-1.8,0.4-2.7,0.5
	c-0.9,0.2-1.8,0.3-2.7,0.4c-0.9,0.1-1.9,0.2-2.8,0.3c-0.4,0-0.7-0.2-0.8-0.6c0-0.2,0.1-0.5,0.3-0.6c0.9-0.5,1.7-0.9,2.6-1.3
	c0.7-0.3,1.4-0.6,2.1-0.9c0.7-0.3,1.4-0.6,2.1-0.8l-0.1-0.1l-1.4-1l-0.7-0.5l-0.1-0.1c0,0-0.1-0.1-0.1-0.1c-0.1-0.1-0.2-0.1-0.3-0.1
	c-0.3-0.2-0.7-0.3-1.1-0.4c-0.1,0-0.2,0-0.3-0.1l-0.4-0.1l-0.9-0.1c-1.2-0.1-2.3-0.3-3.5-0.4c-2.3-0.2-4.7-0.4-7-0.5
	c-0.3,0-0.6,0-0.9,0c-0.3,0-0.6,0-0.8,0s-0.6,0-0.8,0l-0.4,0l-0.4,0c-1.1,0.1-2.3,0.2-3.5,0.4c-2.3,0.3-4.6,0.7-6.8,1.1
	c-0.5,0.1-1.1,0.3-1.6,0.4c-0.5,0.1-1,0.3-1.4,0.5c-0.5,0.2-0.9,0.4-1.3,0.6c-0.4,0.2-0.8,0.5-1.3,0.8c-1.9,1.2-3.8,2.4-5.6,3.6
	l-1.4,0.9c-0.2,0.1-0.4,0.3-0.6,0.4c-0.4,0.3-0.8,0.5-1.2,0.6c-0.7,0.3-1.3,0.5-2,0.6c-0.3,0.1-0.7,0.1-1,0.2
	c-0.3,0.1-0.6,0.1-1,0.1l-0.2,0h-0.1c-2.3,0-4.7,0-7,0c-2.3,0-4.7,0.1-7,0.3c-0.6,0.1-1.1,0.1-1.7,0.2c-0.5,0.1-1,0.2-1.5,0.3
	l-0.2,0l-0.1,0.1c-0.1,0-0.2,0.1-0.3,0.1l-0.3,0.1l-0.3,0.2c-0.4,0.3-0.8,0.6-1.1,0.9c-0.7,0.7-1.3,1.5-1.8,2.3l-0.4,0.5
	c0.7,0.3,1.5,0.7,2.2,1c1.4,0.7,2.9,1.3,4.5,1.8c0.2,0.1,0.4,0.1,0.6,0.2l0.6,0.1c0.2,0,0.4,0.1,0.5,0.1l0.3,0c0.1,0,0.2,0,0.3,0
	h0.6c0.2,0,0.4,0,0.6,0c0.4,0,0.8,0,1.3-0.1c1.7-0.1,3.4-0.2,5.2-0.4c3.4-0.3,6.9-0.7,10.3-1.1l10.3-1.3l2.5-0.3l-0.9,1.8l-0.1,0.1
	l-0.1,0.1c0,0.1-0.1,0.1-0.1,0.2c-0.1,0.1-0.2,0.3-0.3,0.4c-0.2,0.3-0.4,0.5-0.5,0.7c-0.4,0.5-0.9,0.9-1.4,1.3
	c-0.5,0.4-1.1,0.8-1.7,1.1c-0.2,0.1-0.3,0.1-0.5,0.2c-0.2,0.1-0.3,0.1-0.5,0.2l-0.5,0.2l-0.5,0.1c-1.2,0.3-2.5,0.6-3.8,0.8
	c-0.6,0.1-1.2,0.2-1.9,0.3l-1.9,0.2l-1.9,0.2l-1.9,0.2c-1.2,0.1-2.5,0.2-3.7,0.3c-1.2,0.1-2.5,0.2-3.7,0.2c-1.2,0.1-2.5,0.1-3.8,0.2
	c-0.3,0-0.6-0.2-0.7-0.5c0-0.3,0.2-0.5,0.5-0.5l3.7-0.5l3.7-0.5c2.4-0.3,4.9-0.7,7.3-1l1.8-0.3l1.8-0.3c1.2-0.2,2.4-0.5,3.4-0.8
	l0.4-0.1l0.3-0.1c0.1,0,0.2-0.1,0.3-0.1c0.1-0.1,0.2-0.1,0.3-0.1c0.4-0.2,0.8-0.5,1.2-0.8c0.1-0.1,0.1-0.1,0.2-0.2
	c-0.7,0.1-1.4,0.2-2.1,0.3l-5.2,0.6c-3.5,0.4-6.9,0.7-10.4,1.1c-0.9,0.1-1.7,0.2-2.6,0.3l-1.3,0.1l-1.3,0.1c-0.4,0-0.9,0.1-1.4,0.1
	l-0.7,0H167c-0.1,0-0.3,0-0.4,0l-0.4,0c-0.3,0-0.5,0-0.8-0.1l-0.7-0.1c-0.2,0-0.5-0.1-0.7-0.1c-3.7-0.6-7.2-1.4-10.4-2.9l-2.3-1
	l1.4-1.7c0.3-0.4,0.7-0.9,1.1-1.2c0.4-0.4,0.8-0.8,1.3-1.1c0.9-0.7,1.9-1.4,2.9-2c0.5-0.3,1-0.7,1.6-1l0.4-0.2
	c0.1-0.1,0.3-0.1,0.5-0.2c0.2-0.1,0.3-0.2,0.5-0.2l0.3-0.1l0.3-0.1c1.2-0.3,2.5-0.5,3.8-0.7c2.4-0.3,4.8-0.5,7.2-0.7
	c2.3-0.2,4.6-0.3,6.9-0.4c0,0-0.1,0-0.1,0l0.3,0c-0.1,0-0.2,0-0.3,0c0.9-0.2,1.9-0.4,2.7-0.7c0.2-0.1,0.3-0.1,0.3-0.1
	c0.3-0.2,0.5-0.4,0.8-0.5l1.4-0.9c1.9-1.2,3.8-2.4,5.7-3.6c0.4-0.3,1-0.6,1.6-0.9c0.6-0.3,1.2-0.6,1.8-0.8c0.6-0.2,1.3-0.5,1.9-0.6
	c0.6-0.2,1.2-0.3,1.9-0.4c2.4-0.5,4.8-0.9,7.3-1.2c1.2-0.2,2.4-0.3,3.7-0.4l0.5,0l0.5,0c0.3,0,0.7,0,1,0s0.7,0,1,0c0.3,0,0.6,0,1,0
	c2.5,0.1,5,0.3,7.4,0.5c1.2,0.1,2.4,0.3,3.6,0.4l0.9,0.1l0.5,0.1c0.2,0,0.4,0.1,0.6,0.1c0.8,0.2,1.5,0.4,2.2,0.8
	c0.2,0.1,0.3,0.2,0.5,0.3c0.1,0.1,0.2,0.1,0.2,0.2l0.2,0.1l0.7,0.5l1.4,1l2.6,2.6l-0.2-0.1l0.4,0.2l-0.1-0.1
	c2.2,1,10.3,4.7,10.8,6.9C244.8,107.2,243.3,110.2,241.5,109.9z"/>
<path class="st0" d="M179.5,99.1l-0.3,0h0.1L179.5,99.1z"/>
<path class="st0" d="M233.6,95.5l-0.4-0.2l0.2,0.1L233.6,95.5z"/>
<path class="st0" d="M147.9,124.5c-0.4,0.7-1.2,1-1.9,0.6c-0.1-0.1-0.2-0.2-0.3-0.3c-1.5-1.7,4.5-8,4.5-8l0,0l-0.2-0.3l-0.9-1.2
	c-0.1-0.2-0.1-0.4,0.1-0.6c0,0,0.1,0,0.1-0.1c0.2-0.1,0.5-0.1,0.7,0.1l1.2,1l0.3,0.3l0.1,0.1c0,0,0.1,0.1,0.1,0.1
	c0.1,0.1,0.2,0.2,0.2,0.3C152.2,117.2,149,122.6,147.9,124.5z"/>
<path class="st0" d="M214.7,112.3c-0.2-0.9-0.5-1.7-0.9-2.5c-0.5-0.9-1.1-1.6-1.9-2.2c-0.5-0.4-1.1-0.6-1.7-0.7
	c-0.7,0-1.3,0.1-1.9,0.4c-0.5,0.3-0.9,0.6-1.3,1c-0.3,0.4-0.6,0.7-0.9,1.1c-0.5,0.7-1,1.5-1.3,2.4c-0.4,0.8-0.7,1.7-0.9,2.5
	c-0.2,0.8-0.4,1.7-0.5,2.5c-0.2,1.5-0.4,3.1-0.5,5c-0.1,0.9-0.1,1.7-0.1,2.5l-0.1,1.5l-4.8,0.7l-2.2-3.2l-0.3-0.4
	c0-0.1-0.1-0.1-0.1-0.1c-0.1-0.1-0.2-0.2-0.3-0.3c-0.8-0.7-1.9-1-2.9-0.8c-0.3,0.1-0.3,0.1-0.4,0.1l-1,0.3l-5,1.2
	c-3.3,0.7-6.6,1.2-10.3,1.8c-1.5,0.2-3.3,0.5-5.1,0.6c-1.6,0.1-3.3,0.1-4.9-0.1c-1.7-0.2-3.4-0.4-5-0.7c-0.7-0.1-1.4-0.3-2.1-0.5
	l-2.8-0.7l-0.8-0.2l-0.7,0.4l1,3.1h0c0.2,0.1,0.4,0.1,0.7,0.2c0.5,0.2,0.9,0.3,1.3,0.4c0.8,0.2,1.7,0.4,2.6,0.6
	c1.8,0.4,3.6,0.7,5.4,0.9c1.9,0.2,3.8,0.3,5.6,0.1c1.6-0.1,3.3-0.3,5.4-0.7c2.2-0.4,4.5-0.8,6.6-1.2c1.2-0.3,2.5-0.5,3.8-0.8
	l2.6-0.5l1.3-0.3l0.7-0.1c0.1,0,0.2,0,0.4-0.1l1.2-0.3l2.4,3.3c0.1,0.2,0.3,0.4,0.5,0.5c0.6,0.5,1.5,0.9,2.3,0.9c0.1,0,0.3,0,0.4,0
	l5.3-0.9l0.6-0.1c0.1,0,0.3-0.1,0.4-0.1c0.8-0.3,1.4-1,1.6-1.9c0-0.1,0-0.3,0-0.4v-2c0-0.9,0-1.7,0-2.4c0-1.9,0.1-3.4,0.3-4.8
	c0.1-0.7,0.2-1.5,0.3-2.3c0.1-0.7,0.4-1.5,0.6-2.2c0.3-0.7,0.6-1.4,1-2.1c0.3-0.6,0.8-1.1,1.3-1.5c0.2-0.1,0.4-0.2,0.6-0.2
	c0.2,0,0.5,0.1,0.7,0.2c0.6,0.4,1.1,0.9,1.5,1.5c0.8,1.3,1.3,2.8,1.5,4.3v0c0.1,0.3,0.4,0.6,0.8,0.5c0.3-0.1,0.5-0.3,0.5-0.5
	C214.9,114.1,214.8,113.2,214.7,112.3z"/>
</svg>
