<svg id="Calque_1" data-name="Calque 1" xmlns="http://www.w3.org/2000/svg" width="389.55" height="238.35" viewBox="0 0 389.55 238.35"><defs><style>.cls-1{fill:#fff;}</style></defs><path class="cls-1" d="M361.74,402.67h17.53v3.51H357.91V368.56h3.83Z" transform="translate(-317.07 -168.79)"/><path class="cls-1" d="M388.3,402.67h20.14v3.51h-24V368.56H407.8v3.51H388.3v12.8h18.23v3.51H388.3Z" transform="translate(-317.07 -168.79)"/><path class="cls-1" d="M415.34,406.18h-4.46l16.36-37.62H431l16.37,37.62h-4.47l-4.14-9.88H419.49Zm5.58-13.39h16.31L429.1,373Z" transform="translate(-317.07 -168.79)"/><path class="cls-1" d="M470.22,374.78a8.21,8.21,0,0,0-7.28-3.67c-3.93,0-8,2.07-8,6.8,0,10.15,19.29,4.78,19.29,18.33,0,6.86-6.43,10.9-12.38,10.9-4.57,0-9-1.65-11.85-5.58l3.45-2.5a9.52,9.52,0,0,0,8.56,4.57c3.77,0,8.07-2.45,8.07-6.86,0-10.62-19.28-4.72-19.28-18.49,0-7.28,6.05-10.68,12.16-10.68,4.25,0,7.65,1.17,10.63,4.57Z" transform="translate(-317.07 -168.79)"/><path class="cls-1" d="M494,406.18H490.2V390l-14.08-21.41h4.78l11.21,17.75,11.21-17.75h4.78L494,390Z" transform="translate(-317.07 -168.79)"/><path class="cls-1" d="M552.14,377.38c-2.76-2.92-5.31-3.72-7.91-3.72-7.76,0-12.91,5.95-12.91,13.44,0,8,5.15,14,12.91,14,3,0,5.95-1.38,8.44-4.57l5.53,3.93c-3.4,4.68-8.5,6.7-14,6.7-11.58,0-19.87-7.87-19.87-19.61,0-12.06,8.29-19.93,19.87-19.93a16.37,16.37,0,0,1,13.18,5.95Z" transform="translate(-317.07 -168.79)"/><path class="cls-1" d="M574.88,368.56h5.79l16.21,37.62h-7.65l-3.51-8.61H569.41l-3.4,8.61h-7.5Zm8.5,23.27-5.79-15.3-5.9,15.3Z" transform="translate(-317.07 -168.79)"/><path class="cls-1" d="M601.07,368.56h13.07c7.23,0,14,2.34,14,10.79,0,5.41-3.14,9.4-8.72,10.2l10,16.63h-8.07l-8.72-15.94h-4.89v15.94h-6.69ZM613,384.5c3.77,0,8.18-.32,8.18-5.21,0-4.46-4.14-5-7.59-5h-5.8v10.2Z" transform="translate(-317.07 -168.79)"/><path class="cls-1" d="M653,376.64a7.92,7.92,0,0,0-6.58-3c-3.09,0-6.17,1.38-6.17,4.84,0,7.54,17.86,3.24,17.86,16.63,0,8.07-6.38,12-13.77,12-4.67,0-9.24-1.44-12.32-5.11l5-4.88a8.9,8.9,0,0,0,7.44,3.93c3.08,0,6.59-1.7,6.59-5.16,0-8.23-17.85-3.5-17.85-16.95,0-7.75,6.91-11.37,13.87-11.37a15.44,15.44,0,0,1,10.78,3.88Z" transform="translate(-317.07 -168.79)"/><path class="cls-1" d="M696.23,251.44c-.68-.09-1-.8-1.43-1.26l-.72-1.06-.12-.25c-.43-.88-3.24-6.14-4.25-7.74a31.76,31.76,0,0,0-3.33-4.38c-.29-.29-.55-.5-.8-.8l-.34-.25a.68.68,0,0,0-.29-.21c-.08,0-.17-.13-.21-.13a0,0,0,0,1,0,0,2.46,2.46,0,0,1-.5-.17c-.63,0-.3-.12-.93.13a7.39,7.39,0,0,0-2.23,2.86,22,22,0,0,0-1.68,4.76c-.21.84-.34,1.76-.51,2.65l-.38,2.77-.54,6c-.34,4-.63,8-.76,11.91-.09,2-.13,3.91,0,5.81a26.24,26.24,0,0,0,.17,2.69c.08.38.08.84.16,1.18l.13.54.08.38c0,.17.09.13.09.17v0a7.67,7.67,0,0,1,.42,1,3.51,3.51,0,0,1,.21,1.1,5.72,5.72,0,0,1,0,1.43,6,6,0,0,1-3.12,3.78,3.94,3.94,0,0,1-.8.38l-.54.21-.59.21-.42.13a20,20,0,0,1-3,.46c-.8.09-1.51.09-2.27.13-2.82.08-5.35,0-7.87,0-5-.17-9.89-.38-14.39-.21a29.71,29.71,0,0,0-6.19.71,47.34,47.34,0,0,0-6.23,1.9,92.58,92.58,0,0,0-12.16,5.68l-.12.08a3.4,3.4,0,0,1-4-.63,2,2,0,0,1,.16-2.86A56.73,56.73,0,0,1,628.69,282a50.36,50.36,0,0,1,7.23-3.24A45,45,0,0,1,644.3,277c2.69-.33,5.34-.46,7.91-.55s5.09-.16,7.57-.21c1.81,0,3.67,0,5.35-.08a2.27,2.27,0,0,0-.08-.55c-.17-1.18-.26-2.27-.34-3.36-.13-2.19-.13-4.25-.13-6.36,0-4.16.25-8.25.51-12.33l.38-6.1.33-3.28c.17-1.14.3-2.23.55-3.37a31.3,31.3,0,0,1,2.27-6.86l.93-1.81c.38-.59.84-1.18,1.26-1.81a17.75,17.75,0,0,1,1.56-1.76,19.85,19.85,0,0,1,2.1-1.77,20.86,20.86,0,0,1,6.06-2.53c10.82-2.86,17.72,9.39,18.18,9.89-.08-.25-.76-10.6-13-16.2-1.47-.67-3.37-2-5.34-3-7-3.53-14.61-6.94-22.1-10.22-2.4.75-4.88,1.34-7.4,1.93-3.5.84-7.07,1.43-10.69,2.07s-7.2,1.17-10.82,1.68-7.32.92-11.07,1.22A3,3,0,0,1,615,209.4a2.26,2.26,0,0,1,1.3-2.27c3.37-1.86,6.82-3.5,10.27-5.1,2.7-1.26,5.43-2.44,8.17-3.57s5.42-2.28,8.2-3.33l-.59-.38-5.43-3.83L634.2,189l-.51-.34a2.52,2.52,0,0,0-.46-.29,7,7,0,0,0-1-.55,17.28,17.28,0,0,0-4.25-1.51,9,9,0,0,0-1.13-.21l-1.52-.21-3.45-.42c-4.63-.59-9.26-1.1-13.89-1.56-9.25-.88-18.55-1.64-27.6-1.81-1.14,0-2.23,0-3.37,0s-2.23,0-3.28,0-2.19,0-3.2.13l-1.6.08-1.68.17c-4.5.38-9.09.88-13.64,1.47-9.13,1.18-18.26,2.65-26.93,4.51-2.14.46-4.33,1-6.27,1.51a54.67,54.67,0,0,0-5.64,1.85,56.57,56.57,0,0,0-5.22,2.44c-1.72.89-3.19,1.81-5.17,3.08-7.41,4.67-14.86,9.34-22.18,14.05L476.85,215c-.88.58-1.76,1.22-2.35,1.64a22.27,22.27,0,0,1-4.71,2.56,49,49,0,0,1-8.08,2.44c-1.31.3-2.57.55-3.88.8s-2.48.38-3.95.59l-.76.09h-.55c-9.17-.09-18.51-.17-27.77-.17s-18.56.21-27.56,1.09c-2.23.21-4.46.42-6.61.76A50.13,50.13,0,0,0,384.7,226l-.64.17-.46.21a5.48,5.48,0,0,0-1.09.46l-1.18.59-1.14.76a26.38,26.38,0,0,0-4.29,3.58,60.86,60.86,0,0,0-7.07,9l-1.47,2.1c2.9,1.35,5.8,2.74,8.71,4.13a131.52,131.52,0,0,0,17.67,7.28c.76.21,1.52.46,2.23.63l2.23.5a19.12,19.12,0,0,0,2.15.34l1,.17a9.75,9.75,0,0,1,1.1,0l2.23,0c.8,0,1.64,0,2.44,0,1.64-.08,3.28-.08,5-.21,6.74-.29,13.55-.88,20.33-1.51,13.59-1.22,27.18-2.82,40.78-4.46l40.65-5.1,9.72-1.22-3.45,7.28-.26.55-.25.42a4,4,0,0,1-.42.8,17.7,17.7,0,0,1-1,1.56c-.67,1-1.39,2-2.14,2.94a37.93,37.93,0,0,1-5.39,5.26A41.35,41.35,0,0,1,504,266.5c-.63.3-1.26.55-1.9.85s-1.26.54-1.93.79l-2,.68-1.9.5a150.5,150.5,0,0,1-14.93,3c-2.45.38-4.93.72-7.37,1.1l-7.36.88-7.37.84-7.4.67c-4.93.47-9.85.85-14.77,1.18s-9.85.68-14.78.89-9.84.5-14.81.63a2.42,2.42,0,0,1-2.65-2,2.22,2.22,0,0,1,2.1-2.06l14.56-1.85,14.52-1.9c9.64-1.3,19.28-2.65,28.83-4.12l7.15-1.18,7.07-1.26c4.63-.93,9.35-1.85,13.51-3.12l1.6-.46,1.35-.46a13.56,13.56,0,0,0,1.34-.59c.42-.21.89-.38,1.31-.59a27.48,27.48,0,0,0,4.71-3.12c.25-.21.51-.42.72-.63-2.74.34-5.47.63-8.21,1l-20.45,2.32q-20.46,2.2-41,4.33c-3.41.34-6.86.72-10.31,1l-5.18.5-5.22.42c-1.72.17-3.53.26-5.34.38l-2.69.13h-3c-.46,0-1,0-1.47,0l-1.48-.13c-1-.08-2.06-.12-3-.25l-2.87-.38c-.92-.12-1.81-.29-2.73-.42-14.6-2.48-28.32-5.72-41.07-11.49l-9-4.08,5.39-6.86a49.4,49.4,0,0,1,4.46-4.92,63.39,63.39,0,0,1,5-4.46c3.53-2.82,7.32-5.43,11.32-8,2-1.26,4-2.61,6.22-3.83l1.69-.93c.59-.29,1.22-.54,1.81-.88a15.59,15.59,0,0,1,2-.84l1.09-.38,1-.34a127,127,0,0,1,14.86-2.61c9.55-1.13,19-2,28.4-2.77,9.13-.76,18.18-1.31,27.4-1.6-.13,0-.21,0-.3,0l1.26-.08c-.33,0-.67,0-1,0A61.48,61.48,0,0,0,462,207.21c.67-.29,1.09-.59,1.18-.59,1.13-.84,2.06-1.47,3-2.1l5.59-3.66q11.18-7.14,22.35-14.14c1.73-1.1,4-2.53,6.23-3.71a67,67,0,0,1,7-3.24,74.64,74.64,0,0,1,7.49-2.48c2.52-.67,4.88-1.22,7.32-1.77,9.55-2.06,19-3.49,28.61-4.75,4.76-.63,9.6-1.14,14.48-1.56l1.85-.13,2-.12c1.31-.09,2.61-.13,3.87-.13s2.57,0,3.83,0,2.48,0,3.75,0c9.93.25,19.56,1.1,29.16,2.06,4.8.51,9.59,1.06,14.35,1.69l3.58.46,2,.25c.8.13,1.55.3,2.35.47a36.22,36.22,0,0,1,8.76,3.19c.67.38,1.34.76,2,1.14.3.21.64.42.93.63l.84.59,2.69,1.89,5.43,3.83,10.19,10.19-.89-.38,1.48.8-.59-.42c8.62,3.91,40.65,18.51,42.5,27.06C709.36,240.67,703.13,252.32,696.23,251.44Z" transform="translate(-317.07 -168.79)"/><path class="cls-1" d="M451.44,208.8l-1.28.08.29,0Z" transform="translate(-317.07 -168.79)"/><path class="cls-1" d="M664.85,194.33l-1.46-.81.89.4Z" transform="translate(-317.07 -168.79)"/><path class="cls-1" d="M327.05,308.79a5.83,5.83,0,0,1-7.69,2.38A4.93,4.93,0,0,1,318,310c-5.74-6.85,17.79-31.38,17.79-31.38l-.12-.15-.94-1.17-3.7-4.73a1.62,1.62,0,0,1,.68-2.52,2.65,2.65,0,0,1,2.82.29l4.78,4.08,1.17,1,.3.26a2.55,2.55,0,0,1,.38.33,7.89,7.89,0,0,1,.88,1.14C343.89,279.89,331.35,301.53,327.05,308.79Z" transform="translate(-317.07 -168.79)"/><path class="cls-1" d="M590.27,260.86a36.66,36.66,0,0,0-3.67-10,27.22,27.22,0,0,0-7.36-8.84,13.72,13.72,0,0,0-6.9-2.65,14,14,0,0,0-7.58,1.64,22,22,0,0,0-5.09,3.92,35.66,35.66,0,0,0-3.62,4.46,56.36,56.36,0,0,0-5.17,9.38,60.59,60.59,0,0,0-3.58,9.93,99.94,99.94,0,0,0-1.94,10c-.88,5.89-1.51,12.16-2.1,19.74-.21,3.53-.42,6.73-.55,9.8L542.5,314l-19,2.61-8.67-12.75-1.05-1.51a2.45,2.45,0,0,0-.46-.55,8.2,8.2,0,0,0-1.05-1.1,13.47,13.47,0,0,0-11.49-3.15c-1,.21-1.22.25-1.52.33l-3.95,1-19.91,4.68c-13,2.86-26.09,4.88-40.65,7.07-6,.92-13,1.93-20.07,2.48a113.37,113.37,0,0,1-19.44-.3,183.13,183.13,0,0,1-19.74-2.94c-2.78-.55-5.6-1.18-8.33-1.81L356,305.43l-3.16-.88-2.78,1.55L354,318.35l.16,0c.89.3,1.73.59,2.57.84,2.06.68,3.66,1.14,5.18,1.56,3.15.88,6.56,1.68,10.39,2.52a192.39,192.39,0,0,0,21.42,3.5,116.78,116.78,0,0,0,22.22.42c6.44-.47,13-1.26,21.34-2.57,8.83-1.39,17.67-3.2,26.21-4.92,4.93-1,10-2,15.07-3l10.27-1.94,5.13-1.05,2.65-.55a11.85,11.85,0,0,0,1.39-.33l4.63-1.26,9.34,13a14.13,14.13,0,0,0,1.85,2,13.87,13.87,0,0,0,9.05,3.36c.46,0,1,0,1.47-.08l20.92-3.45,2.48-.42a10.82,10.82,0,0,0,1.64-.55,9.93,9.93,0,0,0,6.27-7.45,9,9,0,0,0,.13-1.64l0-7.83c0-3.49.08-6.6.16-9.55.13-7.49.47-13.55,1-19,.26-2.78.63-6,1.22-9.13a57.57,57.57,0,0,1,2.44-8.63,47.7,47.7,0,0,1,3.83-8.12,17.8,17.8,0,0,1,5.14-5.89,4.32,4.32,0,0,1,2.35-.84,4.9,4.9,0,0,1,2.7.84,20.06,20.06,0,0,1,5.76,6,36.51,36.51,0,0,1,5.81,16.91v.17a2.54,2.54,0,0,0,5-.08A40.24,40.24,0,0,0,590.27,260.86Z" transform="translate(-317.07 -168.79)"/></svg>